# xmcd
#
# Track frame offsets: 
#        150
#        89252
#        116320
#        154820
#        192137
#
# Disc length: 3094 seconds
#
# Revision: 0
# Processed by: cddbd v1.5.2PL0 Copyright (c) Steve Scherf et al.
# Submitted via: ExactAudioCopy v1.0b1
#
DISCID=320c1405
DTITLE=Derek and the Dominos  - The Beat Goes On - Early Show - Disc1
DYEAR=1900
DGENRE=
TTITLE0=Tell the Truth
TTITLE1=Little Wing
TTITLE2=Blues Power
TTITLE3=Have You Ever Loved a Woman
TTITLE4=Let it Rain
EXTD=
EXTT0=
EXTT1=
EXTT2=
EXTT3=
EXTT4=
PLAYORDER=
